# Blender v2.75 (sub 0) OBJ File: 'First Aid Kit.blend'
# www.blender.org
mtllib First Aid Kit.mtl
o Cube
v 0.666371 -1.589888 -3.042814
v 0.666371 -1.589888 3.042814
v -0.666371 -1.589888 3.042813
v -0.666371 -1.589888 -3.042815
v 0.666372 1.589663 -3.042812
v 0.666371 1.589663 3.042815
v -0.666372 1.589663 3.042813
v -0.666371 1.589663 -3.042814
v 0.182099 -1.589888 -3.042814
v -0.182098 -1.589888 -3.042814
v 0.182098 -1.589888 3.042813
v -0.182099 -1.589888 3.042813
v 0.182099 1.589663 -3.042812
v -0.182098 1.589663 -3.042813
v 0.182098 1.589663 3.042814
v -0.182099 1.589663 3.042813
v 0.839241 -1.798227 -1.213317
v 0.839241 -1.798227 1.213317
v -0.839241 -1.798227 1.213316
v -0.839241 -1.798227 -1.213319
v 0.839242 1.798227 -1.213315
v 0.839241 1.798227 1.213319
v -0.839242 1.798227 1.213316
v -0.839242 1.798227 -1.213318
v 0.148302 1.798227 -1.445482
v 0.148302 1.798227 1.445484
v -0.148302 1.798227 -1.445483
v -0.148302 1.798227 1.445483
v 0.182098 -1.798227 1.213317
v 0.182099 -1.798227 -1.213317
v -0.182098 -1.798227 1.213317
v -0.182098 -1.798227 -1.213317
v 0.839241 -1.798227 -0.989469
v 0.839241 -1.798227 0.989469
v -0.839241 -1.798227 0.989466
v -0.839241 -1.798227 -0.989472
v 0.839241 1.798227 -0.989464
v 0.839241 1.798227 0.989474
v -0.839242 1.798227 0.989467
v -0.839242 1.798227 -0.989470
v 0.182098 1.798227 -1.167279
v 0.182098 1.798227 1.167284
v -0.182099 1.798227 -1.167281
v -0.182099 1.798227 1.167282
v 0.182098 -1.798227 0.989468
v 0.182099 -1.798227 -0.989469
v -0.182098 -1.798227 0.989468
v -0.182098 -1.798227 -0.989469
v 0.148302 2.477285 0.989471
v 0.148302 2.409408 1.213318
v -0.148302 2.477285 0.989469
v -0.148302 2.409408 1.213317
v -0.148302 2.409408 -1.213316
v 0.148302 2.409408 -1.213316
v 0.148302 2.477285 -0.989466
v -0.148302 2.477285 -0.989468
v -0.182099 2.267581 -0.994624
v 0.182098 2.267581 -0.994623
v -0.182099 2.267581 0.994626
v 0.182098 2.267581 0.994627
v 0.839241 -1.798227 2.876904
v 0.839241 1.798227 2.876906
v 0.182098 1.798227 2.897958
v -0.182099 1.798227 2.897958
v -0.839242 -1.798227 2.876904
v -0.839242 1.798227 2.876903
v 0.182098 -1.798227 2.876903
v -0.182099 -1.798227 2.876903
v -0.839241 -1.798227 -2.892857
v -0.839241 1.798227 -2.892855
v 0.182099 -1.798227 -2.892855
v -0.182098 -1.798227 -2.892855
v 0.839241 -1.798227 -2.892855
v 0.839242 1.798227 -2.892854
v 0.182099 1.798227 -2.911884
v -0.182098 1.798227 -2.911884
v 0.666371 -0.241450 -3.042813
v 0.666371 0.241225 -3.042812
v 0.666371 -0.241450 3.042814
v 0.666371 0.241225 3.042814
v -0.666372 -0.241450 3.042812
v -0.666372 0.241225 3.042812
v -0.666371 -0.241450 -3.042814
v -0.666371 0.241225 -3.042814
v 0.182099 -0.272982 -3.042813
v 0.182099 0.272982 -3.042813
v -0.182098 -0.272982 -3.042813
v -0.182098 0.272982 -3.042813
v 0.182098 0.272982 3.042813
v 0.182098 -0.272982 3.042813
v -0.182099 0.272982 3.042813
v -0.182099 -0.272982 3.042813
v -0.839242 0.272982 1.213316
v -0.839241 -0.272982 1.213316
v -0.839241 0.272982 -1.213318
v -0.839241 -0.272982 -1.213318
v 0.839241 0.272982 -1.213316
v 0.839241 -0.272982 -1.213316
v 0.839241 0.272982 1.213319
v 0.839241 -0.272982 1.213318
v 0.839241 0.272982 -0.989465
v 0.839241 -0.272982 -0.989467
v 0.839241 0.272982 0.989472
v 0.839241 -0.272982 0.989470
v -0.839242 0.272982 0.989466
v -0.839241 -0.272982 0.989466
v -0.839242 0.272982 -0.989471
v -0.839241 -0.272982 -0.989471
v -0.839242 0.272982 2.876903
v -0.839242 -0.272982 2.876903
v 0.839241 0.272982 2.876905
v 0.839241 -0.272982 2.876904
v 0.839242 0.272982 -2.892854
v 0.839242 -0.272982 -2.892854
v -0.839241 0.272982 -2.892855
v -0.839241 -0.272982 -2.892856
v 0.839241 -1.798227 -0.329823
v 0.839241 -1.798227 0.329823
v -0.839241 -1.798227 0.329820
v -0.839241 -1.798227 -0.329826
v 0.839241 1.798227 -0.329818
v 0.839241 1.798227 0.329828
v -0.839242 1.798227 0.329821
v -0.839242 1.798227 -0.329825
v 0.182098 1.798227 -0.389091
v 0.182098 1.798227 0.389096
v -0.182099 1.798227 -0.389093
v -0.182099 1.798227 0.389094
v 0.182098 -1.798227 0.329823
v 0.182099 -1.798227 -0.329823
v -0.182098 -1.798227 0.329822
v -0.182098 -1.798227 -0.329824
v -0.839241 -0.272982 0.329820
v -0.839241 -0.272982 -0.329826
v -0.839242 0.272982 0.329821
v -0.839242 0.272982 -0.329825
v 0.839241 -0.272982 -0.329821
v 0.839241 -0.272982 0.329825
v 0.839241 0.272982 -0.329820
v 0.839241 0.272982 0.329826
v 0.666372 0.772511 -3.042812
v 0.666371 0.772511 3.042815
v -0.666372 0.772511 3.042812
v -0.666371 0.772511 -3.042814
v 0.182099 0.873930 -3.042813
v -0.182098 0.873930 -3.042813
v 0.182098 0.873930 3.042813
v -0.182099 0.873930 3.042813
v -0.839242 0.873930 1.213316
v -0.839241 0.873930 -1.213318
v 0.839241 0.873930 -1.213315
v 0.839241 0.873930 1.213319
v 0.839241 0.873930 -0.989465
v 0.839241 0.873930 0.989472
v -0.839242 0.873930 0.989466
v -0.839242 0.873930 -0.989471
v -0.839242 0.873930 2.876903
v 0.839241 0.873930 2.876905
v 0.839242 0.873930 -2.892854
v -0.839241 0.873930 -2.892855
v -0.839242 0.873930 0.329821
v -0.839242 0.873930 -0.329825
v 0.839241 0.873930 -0.329819
v 0.839241 0.873930 0.329827
v 0.182098 -0.881710 3.042813
v -0.182099 -0.881710 3.042813
v -0.839241 -0.881710 1.213316
v -0.839241 -0.881710 -1.213318
v 0.839241 -0.881710 -1.213316
v 0.839241 -0.881710 1.213318
v 0.839241 -0.881710 -0.989468
v 0.839241 -0.881710 0.989470
v -0.839241 -0.881710 0.989466
v -0.839241 -0.881710 -0.989472
v -0.839242 -0.881710 2.876903
v 0.839241 -0.881710 2.876904
v 0.839242 -0.881710 -2.892855
v -0.839241 -0.881710 -2.892856
v 0.666371 -0.779615 -3.042813
v 0.666371 -0.779615 3.042814
v -0.666372 -0.779615 3.042813
v -0.666371 -0.779615 -3.042814
v 0.182099 -0.881710 -3.042813
v -0.182098 -0.881710 -3.042814
v 0.839241 -0.881710 -0.329822
v 0.839241 -0.881710 0.329824
v -0.839241 -0.881710 0.329820
v -0.839241 -0.881710 -0.329826
v 0.865681 0.272982 -0.989465
v 0.865681 -0.272982 -0.989467
v 0.865680 0.272982 0.989472
v 0.865680 -0.272982 0.989470
v -0.865681 0.272982 0.989466
v -0.865681 -0.272982 0.989466
v -0.865681 0.272982 -0.989471
v -0.865681 -0.272982 -0.989471
v -0.865681 -0.272982 -0.329826
v -0.865681 0.272982 -0.329825
v 0.865680 -0.272982 0.329825
v 0.865680 0.272982 0.329826
v -0.865681 -0.272982 0.329820
v -0.865681 0.272982 0.329821
v 0.865681 -0.272982 -0.329821
v 0.865681 0.272982 -0.329820
v -0.865681 0.873930 0.329821
v -0.865681 0.873930 -0.329825
v 0.865681 0.873930 -0.329819
v 0.865680 0.873930 0.329827
v 0.865681 -0.881710 -0.329822
v 0.865680 -0.881710 0.329824
v -0.865681 -0.881710 0.329820
v -0.865681 -0.881710 -0.329826
v 0.060700 -1.589888 -3.042814
v -0.060699 -1.589888 -3.042814
v 0.060699 -1.589888 3.042813
v -0.060700 -1.589888 3.042813
v 0.060700 1.589663 -3.042813
v -0.060699 1.589663 -3.042813
v 0.060699 1.589663 3.042814
v -0.060700 1.589663 3.042814
v 0.060700 -1.798227 -1.213317
v -0.060699 -1.798227 -1.213317
v 0.060699 -1.798227 1.213317
v -0.060700 -1.798227 1.213317
v -0.060700 1.798227 -1.445483
v 0.060699 1.798227 -1.445483
v -0.060700 1.798227 1.445484
v 0.060699 1.798227 1.445484
v 0.060700 -1.798227 -0.989469
v -0.060699 -1.798227 -0.989469
v 0.060700 -1.798227 0.989468
v -0.060699 -1.798227 0.989468
v -0.060700 2.448039 -1.213316
v 0.060699 2.448039 -1.213316
v -0.060700 2.448039 1.213317
v 0.060699 2.448039 1.213318
v -0.060700 2.515916 -0.989467
v 0.060699 2.515916 -0.989467
v -0.060700 2.515916 0.989470
v 0.060699 2.515916 0.989470
v 0.060699 -1.798227 2.876903
v -0.060700 -1.798227 2.876903
v -0.060700 1.798227 2.897958
v 0.060699 1.798227 2.897958
v -0.060699 1.798227 -2.911884
v 0.060700 1.798227 -2.911884
v 0.060700 -1.798227 -2.892855
v -0.060699 -1.798227 -2.892855
v 0.060699 -0.272982 3.042813
v -0.060700 -0.272982 3.042813
v 0.060699 0.272982 3.042813
v -0.060700 0.272982 3.042813
v 0.060700 0.272982 -3.042813
v -0.060699 0.272982 -3.042813
v 0.060700 -0.272982 -3.042813
v -0.060699 -0.272982 -3.042813
v 0.060700 -1.798227 -0.329823
v -0.060699 -1.798227 -0.329824
v 0.060700 -1.798227 0.329822
v -0.060699 -1.798227 0.329822
v 0.060700 0.873930 -3.042813
v -0.060699 0.873930 -3.042813
v 0.060699 0.873930 3.042813
v -0.060700 0.873930 3.042813
v 0.060699 -0.881710 3.042813
v -0.060700 -0.881710 3.042813
v 0.060700 -0.881710 -3.042813
v -0.060699 -0.881710 -3.042814
vn 0.000000 -0.623000 0.782300
vn -0.014800 0.593400 0.804800
vn 0.692400 -0.000000 0.721500
vn -0.000000 -0.000000 1.000000
vn -0.655300 0.000000 -0.755400
vn 0.000000 0.000000 -1.000000
vn 0.014800 0.593400 0.804800
vn 0.000000 0.570400 0.821300
vn 0.000000 -1.000000 -0.000000
vn 0.000000 1.000000 0.000000
vn 0.991800 0.061300 0.112000
vn -1.000000 -0.000000 -0.000000
vn 1.000000 -0.000000 0.000000
vn -0.991800 0.061300 -0.112000
vn -0.991800 0.061300 0.112000
vn -0.388800 0.881700 0.267300
vn -0.388800 0.881700 -0.267300
vn -0.403500 0.915000 0.000000
vn -0.076000 0.344500 -0.935700
vn 0.991800 0.061300 -0.112000
vn 0.076000 0.344500 0.935700
vn -0.000000 -0.345200 0.938500
vn -0.987300 0.159100 -0.000000
vn 0.987300 0.159100 0.000000
vn -0.692400 -0.000000 0.721500
vn 0.000000 -0.584200 -0.811600
vn -0.013900 0.554500 -0.832000
vn 0.655300 0.000000 -0.755400
vn 0.013900 0.554500 -0.832000
vn 0.000000 0.531700 -0.846900
vn -0.076000 0.344500 0.935700
vn -0.000000 0.336500 0.941700
vn 0.076000 0.344500 -0.935700
vn 0.000000 0.336500 -0.941700
vn 0.403500 0.915000 0.000000
vn 0.388800 0.881700 -0.267300
vn 0.000000 0.957000 -0.290200
vn 0.388800 0.881700 0.267300
vn -0.000000 0.957000 0.290200
vn 0.000000 -0.345200 -0.938500
usemtl Material
s off
f 68//1 12//1 3//1 65//1
f 64//2 66//2 7//2 16//2
f 158//3 62//3 6//3 142//3
f 148//4 16//4 7//4 143//4
f 160//5 70//5 8//5 144//5
f 184//6 10//6 4//6 182//6
f 179//6 1//6 9//6 183//6
f 268//6 214//6 10//6 184//6
f 142//4 6//4 15//4 147//4
f 264//4 220//4 16//4 148//4
f 62//7 63//7 15//7 6//7
f 243//8 64//8 16//8 220//8
f 61//1 2//1 11//1 67//1
f 242//1 216//1 12//1 68//1
f 248//9 222//9 32//9 72//9
f 232//9 224//9 31//9 47//9
f 73//9 17//9 30//9 71//9
f 34//9 18//9 29//9 45//9
f 245//10 76//10 27//10 225//10
f 26//11 42//11 60//11 49//11 50//11
f 74//10 75//10 25//10 21//10
f 38//10 42//10 26//10 22//10
f 157//12 66//12 23//12 149//12
f 156//12 40//12 24//12 150//12
f 159//13 74//13 21//13 151//13
f 154//13 38//13 22//13 152//13
f 76//10 70//10 24//10 27//10
f 44//10 39//10 23//10 28//10
f 72//9 32//9 20//9 69//9
f 47//9 31//9 19//9 35//9
f 32//9 48//9 36//9 20//9
f 131//9 47//9 35//9 119//9
f 27//10 24//10 40//10 43//10
f 128//10 123//10 39//10 44//10
f 151//13 21//13 37//13 153//13
f 164//13 122//13 38//13 154//13
f 149//12 23//12 39//12 155//12
f 162//12 124//12 40//12 156//12
f 21//10 25//10 41//10 37//10
f 122//10 126//10 42//10 38//10
f 27//14 43//14 57//14 56//14 53//14
f 44//15 28//15 52//15 51//15 59//15
f 17//9 33//9 46//9 30//9
f 118//9 34//9 45//9 129//9
f 222//9 230//9 48//9 32//9
f 260//9 232//9 47//9 131//9
f 239//16 51//16 52//16 235//16
f 233//17 53//17 56//17 237//17
f 237//18 56//18 51//18 239//18
f 225//19 27//19 53//19 233//19
f 41//20 25//20 54//20 55//20 58//20
f 60//10 58//10 57//10 59//10
f 228//21 26//21 50//21 236//21
f 125//10 41//10 43//10 127//10
f 58//22 57//22 43//22 41//22
f 51//23 56//23 57//23 59//23
f 55//24 49//24 60//24 58//24
f 143//25 7//25 66//25 157//25
f 224//9 242//9 68//9 31//9
f 18//9 61//9 67//9 29//9
f 227//10 28//10 64//10 243//10
f 22//10 26//10 63//10 62//10
f 152//13 22//13 62//13 158//13
f 28//10 23//10 66//10 64//10
f 31//9 68//9 65//9 19//9
f 10//26 72//26 69//26 4//26
f 14//27 8//27 70//27 76//27
f 141//28 5//28 74//28 159//28
f 5//29 13//29 75//29 74//29
f 218//30 14//30 76//30 245//30
f 1//26 73//26 71//26 9//26
f 214//26 248//26 72//26 10//26
f 150//12 24//12 70//12 160//12
f 168//12 96//12 116//12 178//12
f 96//12 95//12 115//12 116//12
f 179//28 77//28 114//28 177//28
f 77//28 78//28 113//28 114//28
f 170//13 100//13 112//13 176//13
f 100//13 99//13 111//13 112//13
f 181//25 81//25 110//25 175//25
f 81//25 82//25 109//25 110//25
f 188//12 134//12 108//12 174//12
f 167//12 94//12 106//12 173//12
f 94//12 93//12 105//12 106//12
f 186//13 138//13 104//13 172//13
f 169//13 98//13 102//13 171//13
f 98//13 97//13 101//13 102//13
f 172//13 104//13 100//13 170//13
f 104//13 103//13 99//13 100//13
f 177//13 114//13 98//13 169//13
f 114//13 113//13 97//13 98//13
f 174//12 108//12 96//12 168//12
f 108//12 107//12 95//12 96//12
f 175//12 110//12 94//12 167//12
f 110//12 109//12 93//12 94//12
f 266//4 250//4 92//4 166//4
f 250//4 252//4 91//4 92//4
f 180//4 79//4 90//4 165//4
f 79//4 80//4 89//4 90//4
f 262//6 254//6 88//6 146//6
f 254//6 256//6 87//6 88//6
f 141//6 78//6 86//6 145//6
f 78//6 77//6 85//6 86//6
f 146//6 88//6 84//6 144//6
f 88//6 87//6 83//6 84//6
f 178//5 116//5 83//5 182//5
f 116//5 115//5 84//5 83//5
f 166//4 92//4 81//4 181//4
f 92//4 91//4 82//4 81//4
f 176//3 112//3 79//3 180//3
f 112//3 111//3 80//3 79//3
f 171//13 102//13 137//13 185//13
f 173//12 106//12 133//12 187//12
f 42//10 126//10 128//10 44//10
f 126//10 125//10 127//10 128//10
f 230//9 258//9 132//9 48//9
f 258//9 260//9 131//9 132//9
f 33//9 117//9 130//9 46//9
f 117//9 118//9 129//9 130//9
f 37//10 41//10 125//10 121//10
f 121//10 125//10 126//10 122//10
f 155//12 39//12 123//12 161//12
f 161//12 123//12 124//12 162//12
f 153//13 37//13 121//13 163//13
f 163//13 121//13 122//13 164//13
f 43//10 40//10 124//10 127//10
f 127//10 124//10 123//10 128//10
f 48//9 132//9 120//9 36//9
f 132//9 131//9 119//9 120//9
f 101//13 153//13 163//13 139//13
f 105//12 155//12 161//12 135//12
f 14//6 146//6 144//6 8//6
f 5//6 141//6 145//6 13//6
f 218//6 262//6 146//6 14//6
f 95//12 150//12 160//12 115//12
f 78//28 141//28 159//28 113//28
f 99//13 152//13 158//13 111//13
f 82//25 143//25 157//25 109//25
f 136//12 162//12 156//12 107//12
f 93//12 149//12 155//12 105//12
f 140//13 164//13 154//13 103//13
f 97//13 151//13 153//13 101//13
f 103//13 154//13 152//13 99//13
f 113//13 159//13 151//13 97//13
f 107//12 156//12 150//12 95//12
f 109//12 157//12 149//12 93//12
f 252//4 264//4 148//4 91//4
f 80//4 142//4 147//4 89//4
f 115//5 160//5 144//5 84//5
f 91//4 148//4 143//4 82//4
f 111//3 158//3 142//3 80//3
f 119//12 187//12 188//12 120//12
f 35//12 173//12 187//12 119//12
f 117//13 185//13 186//13 118//13
f 33//13 171//13 185//13 117//13
f 61//3 176//3 180//3 2//3
f 12//4 166//4 181//4 3//4
f 69//5 178//5 182//5 4//5
f 2//4 180//4 165//4 11//4
f 216//4 266//4 166//4 12//4
f 65//12 175//12 167//12 19//12
f 36//12 174//12 168//12 20//12
f 73//13 177//13 169//13 17//13
f 34//13 172//13 170//13 18//13
f 17//13 169//13 171//13 33//13
f 118//13 186//13 172//13 34//13
f 19//12 167//12 173//12 35//12
f 120//12 188//12 174//12 36//12
f 3//25 181//25 175//25 65//25
f 18//13 170//13 176//13 61//13
f 1//28 179//28 177//28 73//28
f 20//12 168//12 178//12 69//12
f 256//6 268//6 184//6 87//6
f 77//6 179//6 183//6 85//6
f 87//6 184//6 182//6 83//6
f 85//6 183//6 267//6 255//6
f 255//6 267//6 268//6 256//6
f 11//4 165//4 265//4 215//4
f 215//4 265//4 266//4 216//4
f 89//4 147//4 263//4 251//4
f 251//4 263//4 264//4 252//4
f 13//6 145//6 261//6 217//6
f 217//6 261//6 262//6 218//6
f 130//9 129//9 259//9 257//9
f 257//9 259//9 260//9 258//9
f 46//9 130//9 257//9 229//9
f 229//9 257//9 258//9 230//9
f 86//6 85//6 255//6 253//6
f 253//6 255//6 256//6 254//6
f 145//6 86//6 253//6 261//6
f 261//6 253//6 254//6 262//6
f 90//4 89//4 251//4 249//4
f 249//4 251//4 252//4 250//4
f 165//4 90//4 249//4 265//4
f 265//4 249//4 250//4 266//4
f 9//26 71//26 247//26 213//26
f 213//26 247//26 248//26 214//26
f 13//30 217//30 246//30 75//30
f 217//30 218//30 245//30 246//30
f 26//10 228//10 244//10 63//10
f 228//10 227//10 243//10 244//10
f 29//9 67//9 241//9 223//9
f 223//9 241//9 242//9 224//9
f 28//31 227//31 235//31 52//31
f 227//32 228//32 236//32 235//32
f 25//33 226//33 234//33 54//33
f 226//34 225//34 233//34 234//34
f 55//35 238//35 240//35 49//35
f 238//10 237//10 239//10 240//10
f 54//36 234//36 238//36 55//36
f 234//37 233//37 237//37 238//37
f 49//38 240//38 236//38 50//38
f 240//39 239//39 235//39 236//39
f 129//9 45//9 231//9 259//9
f 259//9 231//9 232//9 260//9
f 30//9 46//9 229//9 221//9
f 221//9 229//9 230//9 222//9
f 75//10 246//10 226//10 25//10
f 246//10 245//10 225//10 226//10
f 45//9 29//9 223//9 231//9
f 231//9 223//9 224//9 232//9
f 71//9 30//9 221//9 247//9
f 247//9 221//9 222//9 248//9
f 67//1 11//1 215//1 241//1
f 241//1 215//1 216//1 242//1
f 63//8 244//8 219//8 15//8
f 244//8 243//8 220//8 219//8
f 147//4 15//4 219//4 263//4
f 263//4 219//4 220//4 264//4
f 183//6 9//6 213//6 267//6
f 267//6 213//6 214//6 268//6
f 59//40 60//40 42//40 44//40
usemtl Material.001
f 137//9 102//9 190//9 203//9
f 108//9 134//9 197//9 196//9
f 139//6 163//6 207//6 204//6
f 185//6 137//6 203//6 209//6
f 102//6 101//6 189//6 190//6
f 162//6 136//6 198//6 206//6
f 186//9 185//9 209//9 210//9
f 105//10 135//10 202//10 193//10
f 135//4 161//4 205//4 202//4
f 107//6 108//6 196//6 195//6
f 197//12 198//12 195//12 196//12
f 199//13 200//13 191//13 192//13
f 190//13 189//13 204//13 203//13
f 203//13 204//13 200//13 199//13
f 209//13 203//13 199//13 210//13
f 194//12 193//12 202//12 201//12
f 201//12 202//12 198//12 197//12
f 211//12 201//12 197//12 212//12
f 204//13 207//13 208//13 200//13
f 202//12 205//12 206//12 198//12
f 163//10 164//10 208//10 207//10
f 138//4 186//4 210//4 199//4
f 164//4 140//4 200//4 208//4
f 136//10 107//10 195//10 198//10
f 103//4 104//4 192//4 191//4
f 187//4 133//4 201//4 211//4
f 101//10 139//10 204//10 189//10
f 161//10 162//10 206//10 205//10
f 134//6 188//6 212//6 197//6
f 106//4 105//4 193//4 194//4
f 133//9 106//9 194//9 201//9
f 188//9 187//9 211//9 212//9
f 104//9 138//9 199//9 192//9
f 140//10 103//10 191//10 200//10
